<svg width="674" height="219" viewBox="0 0 674 219" fill="none" xmlns="http://www.w3.org/2000/svg">
<path d="M254.906 147.133C247.562 150.102 238.812 151.586 228.656 151.586C199.086 151.586 187.211 137.035 193.031 107.934C198.539 80.3945 216.332 66.625 246.41 66.625C255.59 66.625 263.52 67.9922 270.199 70.7266L267.387 84.7891C260.785 81.6641 253.285 80.1016 244.887 80.1016C224.77 80.1016 212.855 89.3789 209.145 107.934C205.121 128.051 212.602 138.109 231.586 138.109C234.398 138.109 237.699 137.641 241.488 136.703L246.352 112.328H261.879L254.906 147.133ZM282.014 108.871C278.108 128.363 284.807 138.109 302.112 138.109C318.987 138.109 329.377 128.363 333.284 108.871C337.112 89.6914 330.588 80.1016 313.713 80.1016C296.409 80.1016 285.842 89.6914 282.014 108.871ZM265.842 109.223C271.506 80.8242 288.362 66.625 316.409 66.625C344.026 66.625 355.002 80.8242 349.338 109.223C343.674 137.465 327.034 151.586 299.416 151.586C272.62 151.586 261.428 137.465 265.842 109.223ZM347.266 151L364.024 67.2109H403.282C419.22 67.2109 425.88 73.7148 423.262 86.7227C421.387 96.2539 414.845 103.07 403.634 107.172C414.298 109.242 418.575 115.59 416.466 126.215C413.145 142.738 402.755 151 385.294 151H347.266ZM387.345 137.523C394.22 137.523 398.36 134.008 399.766 126.977C401.524 118.266 397.266 113.91 386.993 113.91H382.305L384.298 103.891C397.618 101.742 405.137 96.3516 406.856 87.7188C407.794 83.0312 405.372 80.6875 399.591 80.6875H376.856L365.489 137.523H387.345ZM425.527 151H409.003L461.327 67.2109H478.027L497.597 151H481.484L476.503 128.148H448.671L456.698 114.672H473.573L466.659 83.207L425.527 151ZM498.689 147.484L501.502 133.422C509.275 136.547 518.455 138.109 529.041 138.109C541.892 138.109 549.177 133.812 550.896 125.219C552.146 118.969 548.826 115.844 540.935 115.844H527.81C510.662 115.844 503.65 108.031 506.775 92.4062C510.212 75.2188 524.138 66.625 548.552 66.625C557.927 66.625 566.541 67.9922 574.392 70.7266L571.58 84.7891C563.806 81.6641 555.232 80.1016 545.857 80.1016C531.795 80.1016 523.943 84.2031 522.302 92.4062C521.052 98.6562 523.826 101.781 530.623 101.781H543.748C561.99 101.781 569.548 109.594 566.423 125.219C562.908 142.797 549.548 151.586 526.345 151.586C515.759 151.586 506.541 150.219 498.689 147.484ZM640.172 67.2109L637.477 80.5703H595.523L591.305 101.664H631.266L628.512 115.551H588.375L583.98 137.523H626.93L624.234 151H566.051L582.809 67.2109H640.172Z" fill="black"/>
<path fill-rule="evenodd" clip-rule="evenodd" d="M79.8124 65.5367C78.2847 66.3747 71.5879 74.9061 71.5879 76.0144C71.5879 76.8372 75.0634 76.9076 129.437 77.1866C173.642 77.414 187.585 77.3415 188.552 76.8813C190.159 76.1162 196.135 67.513 195.998 66.1636C195.895 65.158 195.478 65.1499 138.425 65.0304C93.523 64.9367 80.705 65.0471 79.8124 65.5367ZM32.4954 94.4148C30.8948 95.1278 24.0117 103.724 24 105.025C23.9924 105.865 27.9383 105.911 99.8462 105.911C159.766 105.911 175.868 105.778 176.499 105.278C177.361 104.595 179.945 97.2316 179.945 95.4574C179.945 94.8614 179.584 94.2356 179.144 94.0665C178.703 93.8973 145.836 93.7692 106.104 93.7819C50.8927 93.7996 33.5425 93.9485 32.4954 94.4148ZM105.685 124.266C105.126 124.893 103.581 127.289 102.252 129.592C100.273 133.021 99.948 133.915 100.457 134.529C100.996 135.178 105.832 135.279 136.443 135.279C170.174 135.279 171.831 135.236 172.302 134.354C172.966 133.115 173.577 126.079 173.165 124.436L172.837 123.127H139.769H106.702L105.685 124.266Z" fill="#FB6909"/>
</svg>
